<svg width="17" height="14" viewBox="0 0 17 14" fill="none" xmlns="http://www.w3.org/2000/svg">
<path d="M8.51434 4.42546L8.51614 1.97859C9.46312 1.97859 10.1654 2.57385 10.2612 3.54636L9.35601 4.72573C9.4845 4.83095 9.59125 4.9591 9.67054 5.10334L11.9281 3.83017C12.4034 4.62964 12.2154 5.51911 11.3996 6.08664L9.80927 5.90342C9.78234 6.07304 9.72054 6.23559 9.62758 6.3813L11.9281 7.67867C11.4528 8.47811 10.5732 8.76889 9.66171 8.36047L9.01485 6.88905C8.85673 6.95305 8.68728 6.98614 8.5161 6.98644V9.59605C7.56908 9.59605 6.87394 8.99733 6.77815 8.02135L7.75316 6.74958C7.61184 6.65162 7.49167 6.52746 7.39952 6.38418L5.10405 7.6787C4.62878 6.87924 4.81674 5.98976 5.63251 5.4222L7.20478 5.60338C7.21908 5.42731 7.27077 5.25607 7.35655 5.10055L5.10405 3.8302C5.58284 3.03073 6.46252 2.73999 7.3705 3.1484L7.98024 4.53545C8.14842 4.46276 8.33037 4.4253 8.51431 4.42549L8.51434 4.42546ZM6.95031 11.7449V14H10.1482V11.6964C9.36331 11.8759 8.41453 12.0658 6.95031 11.7449ZM5.59499 0.264732H0L1.78072 3.51529H2.67166C3.12109 2.07533 4.26385 1.00122 5.59499 0.264732ZM14.3786 3.51532H15.518L17 0.264764H11.4221C12.8038 0.999986 13.8131 2.11806 14.3786 3.51532ZM14.4283 5.76916C14.4283 10.1938 9.48577 12.9742 5.55309 10.7619C1.62041 8.54955 1.62038 2.98878 5.55309 0.776436C9.4858 -1.4359 14.4283 1.34455 14.4283 5.76916M13.0598 5.76916C13.0598 2.36863 9.26125 0.231782 6.23883 1.93206C3.21635 3.63231 3.21635 7.90601 6.23883 9.60626C9.26131 11.3065 13.0598 9.16966 13.0598 5.76916Z" fill="#F0F7FA"/>
</svg>
